<mxfile host="app.diagrams.net" agent="Mozilla/5.0 (Windows NT 10.0; Win64; x64) AppleWebKit/537.36 (KHTML, like Gecko) Chrome/130.0.0.0 Safari/537.36 Edg/130.0.0.0" version="24.8.6">
  <diagram name="PÃ¡gina-1" id="em8S2__uohGRgb5ghwev">
    <mxGraphModel dx="1426" dy="747" grid="1" gridSize="10" guides="1" tooltips="1" connect="1" arrows="1" fold="1" page="1" pageScale="1" pageWidth="1169" pageHeight="827" math="0" shadow="0">
      <root>
        <mxCell id="0" />
        <mxCell id="1" parent="0" />
        <mxCell id="Q1I5PNmB4B7kHJwyRxQs-1" value="" style="endArrow=cross;html=1;rounded=0;fillColor=#e51400;strokeColor=#B20000;dashed=1;strokeWidth=2;fontSize=13;align=right;fontStyle=0;endFill=0;" edge="1" parent="1">
          <mxGeometry width="50" height="50" relative="1" as="geometry">
            <mxPoint x="855" y="55.20999999999998" as="sourcePoint" />
            <mxPoint x="911" y="55" as="targetPoint" />
          </mxGeometry>
        </mxCell>
        <mxCell id="Q1I5PNmB4B7kHJwyRxQs-2" value="Return the blocked status" style="text;html=1;align=right;verticalAlign=middle;whiteSpace=wrap;rounded=0;fontSize=13;fontStyle=0" vertex="1" parent="1">
          <mxGeometry x="700" y="40" width="150" height="30" as="geometry" />
        </mxCell>
        <mxCell id="Q1I5PNmB4B7kHJwyRxQs-3" value="" style="edgeStyle=orthogonalEdgeStyle;rounded=0;orthogonalLoop=1;jettySize=auto;html=1;endArrow=cross;endFill=0;fillColor=#e51400;strokeColor=#B20000;strokeWidth=2;fontSize=13;align=right;fontStyle=0" edge="1" parent="1">
          <mxGeometry relative="1" as="geometry">
            <mxPoint x="855" y="85" as="sourcePoint" />
            <mxPoint x="911" y="85" as="targetPoint" />
          </mxGeometry>
        </mxCell>
        <mxCell id="Q1I5PNmB4B7kHJwyRxQs-4" value="" style="edgeStyle=orthogonalEdgeStyle;rounded=0;orthogonalLoop=1;jettySize=auto;html=1;endArrow=block;endFill=1;fillColor=#d5e8d4;strokeColor=#82b366;strokeWidth=2;fontSize=13;align=right;fontStyle=0" edge="1" parent="1">
          <mxGeometry relative="1" as="geometry">
            <mxPoint x="855" y="115" as="sourcePoint" />
            <mxPoint x="911" y="115" as="targetPoint" />
          </mxGeometry>
        </mxCell>
        <mxCell id="Q1I5PNmB4B7kHJwyRxQs-5" value="" style="edgeStyle=orthogonalEdgeStyle;rounded=0;orthogonalLoop=1;jettySize=auto;html=1;endArrow=block;endFill=1;fillColor=#f0a30a;strokeColor=#BD7000;strokeWidth=2;fontSize=13;align=right;fontStyle=0" edge="1" parent="1">
          <mxGeometry relative="1" as="geometry">
            <mxPoint x="855" y="145" as="sourcePoint" />
            <mxPoint x="911" y="145" as="targetPoint" />
          </mxGeometry>
        </mxCell>
        <mxCell id="Q1I5PNmB4B7kHJwyRxQs-6" value="Status: Bloqued" style="text;html=1;align=right;verticalAlign=middle;whiteSpace=wrap;rounded=0;fontSize=13;fontStyle=0" vertex="1" parent="1">
          <mxGeometry x="746" y="70" width="104" height="30" as="geometry" />
        </mxCell>
        <mxCell id="Q1I5PNmB4B7kHJwyRxQs-7" value="Status: Success" style="text;html=1;align=right;verticalAlign=middle;whiteSpace=wrap;rounded=0;fontSize=13;fontStyle=0" vertex="1" parent="1">
          <mxGeometry x="731" y="100" width="119" height="30" as="geometry" />
        </mxCell>
        <mxCell id="Q1I5PNmB4B7kHJwyRxQs-8" value="Status: Pending" style="text;html=1;align=right;verticalAlign=middle;whiteSpace=wrap;rounded=0;fontSize=13;fontStyle=0" vertex="1" parent="1">
          <mxGeometry x="730" y="130" width="119" height="30" as="geometry" />
        </mxCell>
        <mxCell id="Q1I5PNmB4B7kHJwyRxQs-9" value="&lt;span style=&quot;font-size: 13px;&quot;&gt;SQS error&lt;/span&gt;" style="swimlane;whiteSpace=wrap;html=1;fillColor=#f5f5f5;fontColor=#333333;strokeColor=#666666;" vertex="1" parent="1">
          <mxGeometry x="120" y="40" width="540" height="580" as="geometry" />
        </mxCell>
        <mxCell id="Q1I5PNmB4B7kHJwyRxQs-10" value="" style="edgeStyle=orthogonalEdgeStyle;rounded=0;orthogonalLoop=1;jettySize=auto;html=1;fillColor=#d5e8d4;strokeColor=#82b366;strokeWidth=2;endArrow=block;endFill=1;" edge="1" parent="Q1I5PNmB4B7kHJwyRxQs-9" source="Q1I5PNmB4B7kHJwyRxQs-11" target="Q1I5PNmB4B7kHJwyRxQs-13">
          <mxGeometry relative="1" as="geometry" />
        </mxCell>
        <mxCell id="Q1I5PNmB4B7kHJwyRxQs-11" value="Client" style="shape=actor;whiteSpace=wrap;html=1;verticalAlign=bottom;labelPosition=center;verticalLabelPosition=top;align=center;fillColor=#f5f5f5;fontColor=#333333;strokeColor=#666666;fontStyle=1" vertex="1" parent="Q1I5PNmB4B7kHJwyRxQs-9">
          <mxGeometry x="130" y="60" width="40" height="60" as="geometry" />
        </mxCell>
        <mxCell id="Q1I5PNmB4B7kHJwyRxQs-12" value="" style="edgeStyle=orthogonalEdgeStyle;rounded=0;orthogonalLoop=1;jettySize=auto;html=1;fillColor=#d5e8d4;strokeColor=#82b366;strokeWidth=2;endArrow=block;endFill=1;" edge="1" parent="Q1I5PNmB4B7kHJwyRxQs-9" source="Q1I5PNmB4B7kHJwyRxQs-13" target="Q1I5PNmB4B7kHJwyRxQs-15">
          <mxGeometry relative="1" as="geometry" />
        </mxCell>
        <mxCell id="Q1I5PNmB4B7kHJwyRxQs-13" value="API Gateway" style="rounded=0;whiteSpace=wrap;html=1;fontStyle=1" vertex="1" parent="Q1I5PNmB4B7kHJwyRxQs-9">
          <mxGeometry x="95" y="160" width="110" height="50" as="geometry" />
        </mxCell>
        <mxCell id="Q1I5PNmB4B7kHJwyRxQs-14" value="" style="edgeStyle=orthogonalEdgeStyle;rounded=0;orthogonalLoop=1;jettySize=auto;html=1;fillColor=#d5e8d4;strokeColor=#82b366;strokeWidth=2;endArrow=block;endFill=1;" edge="1" parent="Q1I5PNmB4B7kHJwyRxQs-9" source="Q1I5PNmB4B7kHJwyRxQs-15" target="Q1I5PNmB4B7kHJwyRxQs-17">
          <mxGeometry relative="1" as="geometry" />
        </mxCell>
        <mxCell id="Q1I5PNmB4B7kHJwyRxQs-15" value="Pix System" style="shape=cube;whiteSpace=wrap;html=1;boundedLbl=1;backgroundOutline=1;darkOpacity=0.05;darkOpacity2=0.1;fillColor=#dae8fc;strokeColor=#6c8ebf;fontStyle=1" vertex="1" parent="Q1I5PNmB4B7kHJwyRxQs-9">
          <mxGeometry x="90" y="250" width="120" height="80" as="geometry" />
        </mxCell>
        <mxCell id="Q1I5PNmB4B7kHJwyRxQs-16" value="" style="edgeStyle=orthogonalEdgeStyle;rounded=0;orthogonalLoop=1;jettySize=auto;html=1;strokeWidth=2;fillColor=#d5e8d4;strokeColor=#82b366;endArrow=block;endFill=1;" edge="1" parent="Q1I5PNmB4B7kHJwyRxQs-9" source="Q1I5PNmB4B7kHJwyRxQs-17" target="Q1I5PNmB4B7kHJwyRxQs-20">
          <mxGeometry relative="1" as="geometry" />
        </mxCell>
        <mxCell id="Q1I5PNmB4B7kHJwyRxQs-17" value="Moria (Authorizer)" style="rounded=0;whiteSpace=wrap;html=1;fontStyle=1" vertex="1" parent="Q1I5PNmB4B7kHJwyRxQs-9">
          <mxGeometry x="95" y="370" width="110" height="50" as="geometry" />
        </mxCell>
        <mxCell id="Q1I5PNmB4B7kHJwyRxQs-29" value="" style="edgeStyle=orthogonalEdgeStyle;rounded=0;orthogonalLoop=1;jettySize=auto;html=1;strokeWidth=2;fillColor=#d5e8d4;strokeColor=#82b366;endArrow=block;endFill=1;" edge="1" parent="Q1I5PNmB4B7kHJwyRxQs-9" source="Q1I5PNmB4B7kHJwyRxQs-20" target="Q1I5PNmB4B7kHJwyRxQs-28">
          <mxGeometry relative="1" as="geometry" />
        </mxCell>
        <mxCell id="Q1I5PNmB4B7kHJwyRxQs-35" style="edgeStyle=orthogonalEdgeStyle;rounded=0;orthogonalLoop=1;jettySize=auto;html=1;entryX=0;entryY=0.5;entryDx=0;entryDy=0;fillColor=#e51400;strokeColor=#B20000;strokeWidth=2;endArrow=cross;endFill=0;" edge="1" parent="Q1I5PNmB4B7kHJwyRxQs-9" source="Q1I5PNmB4B7kHJwyRxQs-20" target="Q1I5PNmB4B7kHJwyRxQs-17">
          <mxGeometry relative="1" as="geometry">
            <Array as="points">
              <mxPoint x="70" y="480" />
              <mxPoint x="70" y="395" />
            </Array>
          </mxGeometry>
        </mxCell>
        <mxCell id="Q1I5PNmB4B7kHJwyRxQs-20" value="Ledger" style="shape=cube;whiteSpace=wrap;html=1;boundedLbl=1;backgroundOutline=1;darkOpacity=0.05;darkOpacity2=0.1;fillColor=#dae8fc;strokeColor=#6c8ebf;fontStyle=1" vertex="1" parent="Q1I5PNmB4B7kHJwyRxQs-9">
          <mxGeometry x="90" y="460" width="120" height="80" as="geometry" />
        </mxCell>
        <mxCell id="Q1I5PNmB4B7kHJwyRxQs-31" value="" style="edgeStyle=orthogonalEdgeStyle;rounded=0;orthogonalLoop=1;jettySize=auto;html=1;strokeWidth=2;fillColor=#f0a30a;strokeColor=#BD7000;endArrow=block;endFill=1;" edge="1" parent="Q1I5PNmB4B7kHJwyRxQs-9" source="Q1I5PNmB4B7kHJwyRxQs-28" target="Q1I5PNmB4B7kHJwyRxQs-30">
          <mxGeometry relative="1" as="geometry" />
        </mxCell>
        <mxCell id="Q1I5PNmB4B7kHJwyRxQs-28" value="Queue (SQS)" style="shape=tapeData;whiteSpace=wrap;html=1;perimeter=ellipsePerimeter;fillColor=#f5f5f5;fontColor=#333333;strokeColor=#666666;fontStyle=1" vertex="1" parent="Q1I5PNmB4B7kHJwyRxQs-9">
          <mxGeometry x="280" y="460" width="80" height="80" as="geometry" />
        </mxCell>
        <mxCell id="Q1I5PNmB4B7kHJwyRxQs-30" value="SQS error?" style="rhombus;whiteSpace=wrap;html=1;fillColor=#fff2cc;strokeColor=#d6b656;fontStyle=1" vertex="1" parent="Q1I5PNmB4B7kHJwyRxQs-9">
          <mxGeometry x="425" y="460" width="80" height="80" as="geometry" />
        </mxCell>
        <mxCell id="Q1I5PNmB4B7kHJwyRxQs-32" style="edgeStyle=orthogonalEdgeStyle;rounded=0;orthogonalLoop=1;jettySize=auto;html=1;entryX=0;entryY=0;entryDx=110;entryDy=10;entryPerimeter=0;fillColor=#e51400;strokeColor=#B20000;strokeWidth=2;endArrow=cross;endFill=0;" edge="1" parent="Q1I5PNmB4B7kHJwyRxQs-9" source="Q1I5PNmB4B7kHJwyRxQs-30" target="Q1I5PNmB4B7kHJwyRxQs-20">
          <mxGeometry relative="1" as="geometry">
            <Array as="points">
              <mxPoint x="465" y="450" />
              <mxPoint x="200" y="450" />
            </Array>
          </mxGeometry>
        </mxCell>
        <mxCell id="Q1I5PNmB4B7kHJwyRxQs-33" style="edgeStyle=orthogonalEdgeStyle;rounded=0;orthogonalLoop=1;jettySize=auto;html=1;entryX=0;entryY=0.563;entryDx=0;entryDy=0;entryPerimeter=0;fillColor=#e51400;strokeColor=#B20000;endArrow=cross;endFill=0;strokeWidth=2;" edge="1" parent="Q1I5PNmB4B7kHJwyRxQs-9" source="Q1I5PNmB4B7kHJwyRxQs-20" target="Q1I5PNmB4B7kHJwyRxQs-15">
          <mxGeometry relative="1" as="geometry">
            <Array as="points">
              <mxPoint x="40" y="500" />
              <mxPoint x="40" y="295" />
            </Array>
          </mxGeometry>
        </mxCell>
        <mxCell id="Q1I5PNmB4B7kHJwyRxQs-34" style="edgeStyle=orthogonalEdgeStyle;rounded=0;orthogonalLoop=1;jettySize=auto;html=1;entryX=1.025;entryY=0.617;entryDx=0;entryDy=0;entryPerimeter=0;fillColor=#e51400;strokeColor=#B20000;strokeWidth=2;endArrow=cross;endFill=0;dashed=1;" edge="1" parent="Q1I5PNmB4B7kHJwyRxQs-9" source="Q1I5PNmB4B7kHJwyRxQs-15" target="Q1I5PNmB4B7kHJwyRxQs-11">
          <mxGeometry relative="1" as="geometry">
            <Array as="points">
              <mxPoint x="280" y="290" />
              <mxPoint x="280" y="97" />
            </Array>
          </mxGeometry>
        </mxCell>
        <mxCell id="Q1I5PNmB4B7kHJwyRxQs-36" value="Yes" style="text;html=1;align=center;verticalAlign=middle;whiteSpace=wrap;rounded=0;" vertex="1" parent="Q1I5PNmB4B7kHJwyRxQs-9">
          <mxGeometry x="460" y="440" width="60" height="30" as="geometry" />
        </mxCell>
      </root>
    </mxGraphModel>
  </diagram>
</mxfile>
